<svg viewBox="0 0 2048 2048" xmlns="http://www.w3.org/2000/svg" fill="none">
  <path fill="#34d399" d="M 1243.65 657.404 C 1295.33 649.842 1362.62 676.282 1398.97 713.054 C 1424.94 739.313 1451.55 765.078 1477.78 791.095 L 1534.96 848.34 C 1556.53 870.06 1580.56 892.133 1595.82 918.89 C 1635.01 987.636 1625.58 1073.13 1571.3 1130.88 C 1537.9 1166.71 1491.52 1187.65 1442.56 1189.01 C 1402.11 1190.26 1362.51 1177.32 1330.6 1152.43 C 1314.88 1139.92 1297.34 1121.37 1283.05 1106.93 C 1260.82 1084.09 1238.19 1061.66 1215.16 1039.63 C 1188.58 1064.41 1160.46 1094.17 1134.68 1120.39 C 1084.56 1171.9 1034.12 1223.1 983.383 1274 C 924.533 1332.87 896.866 1377.3 806.265 1389.63 C 768.045 1397.35 709.325 1379.3 677.394 1358.12 C 648.091 1338.69 618.274 1305.41 593.027 1279.98 L 488.574 1174.78 C 447.384 1132.99 428.438 1097.44 428.536 1037.2 C 428.7 936.102 512.864 857.679 612.867 858.916 C 686.68 859.83 727.66 900.953 775.446 950.496 C 793.221 968.925 813.251 986.272 831.231 1004.84 C 853.671 984.358 876.821 959.045 898.542 937.084 L 1059.46 773.093 C 1082.56 749.806 1119.11 709.066 1144.34 692.148 C 1174.09 672.584 1208.19 660.651 1243.65 657.404 z"/>
  <path fill="#065f46" d="M 1256.36 739.397 C 1320.59 734.098 1356.33 784.721 1396.72 824.801 L 1475.16 902.796 C 1487.38 915.055 1509.36 935.984 1518.7 949.599 C 1528.54 964.126 1534.61 980.884 1536.33 998.351 C 1539.35 1024.64 1531.57 1051.03 1514.77 1071.48 C 1499.33 1090.57 1474.12 1105.43 1449.54 1107.56 C 1396.22 1112.16 1370.83 1080.34 1337.26 1046.63 L 1273.35 981.775 C 1268.06 976.383 1261.26 969.986 1256.48 964.267 C 1207.94 906.275 1170.71 965.622 1133.17 1003.78 L 958.028 1183.52 L 901.472 1242.21 C 865.337 1279.71 848.958 1300.85 793.677 1306.85 C 735.086 1308.62 712.568 1285.07 674.525 1246.77 C 654.741 1227.11 635.105 1207.29 615.618 1187.33 L 562.537 1134.03 C 537.983 1109.26 514.917 1089.39 510.914 1052.38 C 505.271 994.325 543.221 944.344 602.66 940.385 C 657.965 936.701 684.864 974.239 720.407 1009.91 L 782.758 1072.21 C 792.734 1082.31 803.462 1097.55 816.602 1102.81 C 858.146 1119.46 884.35 1069.63 909.337 1043.98 L 1080.21 870.45 C 1114.41 835.152 1152.07 792.567 1190.6 761.37 C 1206.92 748.152 1235.58 741.575 1256.36 739.397 z"/>
  <circle fill="#34d399" cx="1448.6078" cy="1023.8363" r="50.434036"/>
  <circle fill="#34d399" cx="602.17352" cy="1023.8363" r="50.434036"/>
</svg>
